<?xml version="1.0" encoding="UTF-8" standalone="no"?>
<!-- Created with Inkscape (http://www.inkscape.org/) -->

<svg
   xmlns:dc="http://purl.org/dc/elements/1.1/"
   xmlns:cc="http://creativecommons.org/ns#"
   xmlns:rdf="http://www.w3.org/1999/02/22-rdf-syntax-ns#"
   xmlns:svg="http://www.w3.org/2000/svg"
   xmlns="http://www.w3.org/2000/svg"
   xmlns:sodipodi="http://sodipodi.sourceforge.net/DTD/sodipodi-0.dtd"
   xmlns:inkscape="http://www.inkscape.org/namespaces/inkscape"
   width="800"
   height="800"
   viewBox="0 0 800 800"
   id="svg2"
   version="1.1"
   inkscape:version="0.92.2 5c3e80d, 2017-08-06"
   sodipodi:docname="logo.svg"
   inkscape:export-filename="logo.png"
   inkscape:export-xdpi="48"
   inkscape:export-ydpi="48">
  <defs
     id="defs4" />
  <sodipodi:namedview
     id="base"
     pagecolor="#ffffff"
     bordercolor="#666666"
     borderopacity="1.0"
     inkscape:pageopacity="0.0"
     inkscape:pageshadow="2"
     inkscape:zoom="0.94285703"
     inkscape:cx="398.39151"
     inkscape:cy="420.00007"
     inkscape:document-units="px"
     inkscape:current-layer="layer1"
     showgrid="true"
     units="px"
     inkscape:object-paths="true"
     inkscape:object-nodes="true"
     inkscape:snap-smooth-nodes="true"
     borderlayer="true"
     inkscape:window-width="1680"
     inkscape:window-height="1005"
     inkscape:window-x="0"
     inkscape:window-y="1"
     inkscape:window-maximized="1">
    <inkscape:grid
       type="xygrid"
       id="grid4136"
       spacingx="10"
       spacingy="10" />
  </sodipodi:namedview>
  <metadata
     id="metadata7">
    <rdf:RDF>
      <cc:Work
         rdf:about="">
        <dc:format>image/svg+xml</dc:format>
        <dc:type
           rdf:resource="http://purl.org/dc/dcmitype/StillImage" />
        <dc:title></dc:title>
      </cc:Work>
    </rdf:RDF>
  </metadata>
  <g
     inkscape:label="Layer 1"
     inkscape:groupmode="layer"
     id="layer1"
     transform="translate(0,-252.36216)">
    <rect
       style="color:#000000;display:inline;overflow:visible;visibility:visible;opacity:1;fill:#e0e0e0;fill-opacity:1;fill-rule:evenodd;stroke:none;stroke-width:8;stroke-linecap:round;stroke-linejoin:round;stroke-miterlimit:4;stroke-dasharray:none;stroke-dashoffset:0;stroke-opacity:1;marker:none;enable-background:accumulate"
       id="rect4153"
       width="800"
       height="800"
       x="0"
       y="252.36214" />
    <path
       id="path4150"
       style="color:#000000;display:inline;overflow:visible;visibility:visible;opacity:1;fill:#666666;fill-opacity:1;fill-rule:evenodd;stroke:none;stroke-width:8;stroke-linecap:round;stroke-linejoin:round;stroke-miterlimit:4;stroke-dasharray:none;stroke-dashoffset:0;stroke-opacity:1;marker:none;enable-background:accumulate"
       d="m -80.00976,652.32428 c -19.5137,-25.93032 -30.09699,-57.48688 -30.16336,-89.93928 0,-82.889 67.194884,-150.08416 150.083968,-150.08416 82.889092,0 150.083972,67.19516 150.083972,150.08416 -0.0528,32.45708 -10.62601,64.02232 -30.00214,89.97408 -19.38178,25.942 -29.96509,57.4984 -30.03145,89.9508 0,82.8892 67.19488,150.08392 150.08397,150.08392 82.88909,0 150.08396,-67.19472 150.08396,-150.08392 -0.0528,-32.4568 -10.626,-64.022 -30.0608,-90.018 C 380.628,626.3062 370.0447,594.74964 369.97833,562.2972 c 0,-82.88896 67.19487,-150.08396 150.08395,-150.08396 82.88912,0 150.084,67.195 150.084,150.08396 -0.0528,32.45712 -10.62604,64.02236 -30.0754,90.00668 -19.45512,25.974 -30.0384,57.5304 -30.10476,89.9828 0,82.8888 67.19484,150.08392 150.08396,150.08392 82.88908,0 150.08396,-67.19512 150.08396,-150.08392 -0.0528,-32.4572 -10.626,-64.0224 -30.13404,-89.9624 V 212.36204 H -80 Z"
       inkscape:connector-curvature="0"
       sodipodi:nodetypes="ccscccscccscccscc" />
    <path
       style="color:#000000;font-style:normal;font-variant:normal;font-weight:normal;font-stretch:normal;font-size:medium;line-height:normal;font-family:sans-serif;font-variant-ligatures:normal;font-variant-position:normal;font-variant-caps:normal;font-variant-numeric:normal;font-variant-alternates:normal;font-feature-settings:normal;text-indent:0;text-align:start;text-decoration:none;text-decoration-line:none;text-decoration-style:solid;text-decoration-color:#000000;letter-spacing:normal;word-spacing:normal;text-transform:none;writing-mode:lr-tb;direction:ltr;text-orientation:mixed;dominant-baseline:auto;baseline-shift:baseline;text-anchor:start;white-space:normal;shape-padding:0;clip-rule:nonzero;display:inline;overflow:visible;visibility:visible;opacity:1;isolation:auto;mix-blend-mode:normal;color-interpolation:sRGB;color-interpolation-filters:linearRGB;solid-color:#000000;solid-opacity:1;vector-effect:none;fill:none;fill-opacity:1;fill-rule:evenodd;stroke:#ffffff;stroke-width:8;stroke-linecap:round;stroke-linejoin:round;stroke-miterlimit:4;stroke-dasharray:none;stroke-dashoffset:0;stroke-opacity:1;marker:none;color-rendering:auto;image-rendering:auto;shape-rendering:auto;text-rendering:auto;enable-background:accumulate"
       d="m 515.98633,396.26367 -0.40625,0.01 -3.84766,0.14648 -0.40625,0.0215 -3.82422,0.24218 -0.40234,0.0293 -3.79688,0.33789 -0.40234,0.041 -3.76953,0.43164 -0.40039,0.0508 -3.74219,0.52344 -0.39844,0.0605 -3.71093,0.61524 -0.39453,0.0703 -2.67188,0.51172 -5.94336,2.45312 -4.49805,4.59571 -2.32421,5.99609 0.22265,6.42578 2.73438,5.81836 4.80468,4.27344 6.09961,2.03711 4.92578,-0.17188 2.49414,-0.47851 3.22071,-0.53321 3.41992,-0.47851 3.36133,-0.38477 3.375,-0.30078 3.48242,-0.2207 3.34961,-0.12695 3.5293,-0.0449 2.36718,0.0293 6.31446,-1.21094 5.32812,-3.60156 3.48047,-5.40625 1.07031,-6.33984 -1.51172,-6.25 -3.84961,-5.14844 -5.5664,-3.21875 -4.86133,-0.82031 -2.57227,-0.0332 h -0.40624 z m -492.835939,0.875 -0.402344,0.041 -3.769531,0.42969 -0.400391,0.0508 -3.740234,0.52343 -0.398438,0.0625 -3.710937,0.61329 -0.396485,0.0723 -3.6796872,0.70508 -0.3925782,0.0801 -3.6464844,0.79297 -0.390625,0.0898 -3.6132812,0.88281 -0.3867188,0.0996 -3.578125,0.96875 -0.3828124,0.10742 -2.5703126,0.76563 -5.6699222,3.0332 -4.015625,5.02149 -1.716797,6.19726 0.863282,6.3711 3.300781,5.51757 5.205078,3.77344 6.2714845,1.41797 4.88476562,-0.66016 2.35742188,-0.70312 3.2148438,-0.86914 3.2246093,-0.78711 3.2675779,-0.71094 3.285156,-0.62891 3.320313,-0.55078 3.330078,-0.46679 3.361328,-0.38282 2.869141,-0.25586 6.160156,-1.84375 4.9375,-4.11914 2.914063,-5.73046 0.425781,-6.41602 -2.134766,-6.06445 -4.351562,-4.73438 -5.863282,-2.64062 -4.917968,-0.32422 z m 60.199218,9.6875 -5.027343,4.00781 -3.044922,5.66407 -0.570313,6.40429 1.998047,6.11133 4.242188,4.83203 4.341796,2.33203 0.746094,0.26368 2.964844,1.12695 3.085938,1.25976 2.953124,1.29102 2.949219,1.375 2.945309,1.46289 2.90821,1.53516 2.74414,1.5332 2.85547,1.6875 1.42382,0.89063 6.02735,2.23828 6.42187,-0.31446 5.78125,-2.8164 4.20313,-4.86524 1.94922,-6.12695 -0.61914,-6.40039 -3.08985,-5.63867 -3.72851,-3.22266 -1.60352,-1 -0.33008,-0.20117 -3.11718,-1.84375 -0.33594,-0.19336 -3.16602,-1.76953 -0.34179,-0.18555 -3.2129,-1.69531 -0.3457,-0.17578 -3.25781,-1.6211 -0.35156,-0.16796 -3.30274,-1.54297 -0.35742,-0.16016 -3.3457,-1.46289 -0.35938,-0.1543 -3.38867,-1.38281 -0.36523,-0.14453 -3.427738,-1.30274 -0.371094,-0.13671 -0.910156,-0.32032 -6.369141,-0.87304 z m 495.306641,4.97852 -5.39648,3.49609 -3.58594,5.33789 -1.19336,6.31641 1.38867,6.2793 3.74805,5.2246 4.09179,2.74805 0.49219,0.23047 2.91406,1.44727 2.875,1.51757 2.80469,1.57032 2.80274,1.65625 2.70117,1.68554 2.67578,1.75977 2.70703,1.87695 2.62305,1.91406 1.64843,1.26368 5.78516,2.80664 6.42188,0.30273 6.02343,-2.24805 4.65235,-4.43945 2.52734,-5.91211 -0.002,-6.42969 -2.53516,-5.91015 -3.40234,-3.56445 -1.82813,-1.40235 -0.30664,-0.22851 -2.91601,-2.12696 -0.31446,-0.22265 -2.96679,-2.0586 -0.31836,-0.21484 -3.02149,-1.98828 -0.32422,-0.20703 -3.06835,-1.91602 -0.33008,-0.20117 -3.11914,-1.84375 -0.33594,-0.19336 -3.16602,-1.76953 -0.33984,-0.18555 -3.21289,-1.69531 -0.34766,-0.17578 -3.25781,-1.61914 -0.35156,-0.16993 -0.65235,-0.30468 -6.2539,-1.49414 z m -151.13867,13.36523 -4.38281,2.25586 -2.29883,1.67774 -0.30664,0.22851 -2.86133,2.19531 -0.30078,0.23633 -2.8086,2.25977 -0.29492,0.24414 -2.75,2.32617 -0.28906,0.25 -2.69531,2.39063 -0.28125,0.25781 -2.63672,2.45312 -0.27539,0.26367 -2.57617,2.51563 -0.27149,0.26953 -2.51562,2.57617 -0.26172,0.27539 -2.45508,2.63672 -0.25586,0.2832 -0.22266,0.25 -3.21289,5.56836 -0.76367,6.38477 1.8125,6.16797 4.0957,4.95703 5.71485,2.94531 6.41406,0.45703 6.07617,-2.10351 3.76172,-3.10938 0.002,0.002 0.01,-0.01 0.0254,-0.0215 0.13086,-0.14649 2.17969,-2.33984 2.22851,-2.28125 2.2793,-2.22656 2.37695,-2.21289 2.42188,-2.14844 2.43164,-2.05664 2.5293,-2.03907 2.52734,-1.9375 2.17187,-1.58398 4.32813,-4.75586 2.10742,-6.07617 -0.45703,-6.41211 -2.94336,-5.7168 -4.95508,-4.0957 -6.16797,-1.81445 z m -493.203127,9.90039 -4.146484,2.66407 -1.789063,1.58789 -0.283203,0.25585 -2.636719,2.45508 -0.27539,0.26368 -2.576172,2.51562 -0.269531,0.26953 -2.515625,2.57617 -0.263672,0.27539 -2.453125,2.63672 -0.257813,0.28125 -2.390625,2.69532 -0.25,0.28906 -2.326172,2.75 -0.24414,0.29492 -2.259766,2.80859 -0.236328,0.30078 -2.195313,2.86133 -0.228515,0.30664 -0.462891,0.63672 -2.667968,5.84961 -0.150391,6.42774 2.394531,5.96875 4.548828,4.54296 5.970703,2.38672 6.427735,-0.1582 5.847656,-2.67383 3.482422,-3.48828 0.335937,-0.45898 1.97461,-2.57813 2.039062,-2.53125 2.054688,-2.42969 2.148437,-2.42187 2.212891,-2.37695 2.226562,-2.2793 2.277344,-2.22461 2.417969,-2.25 1.611328,-1.42969 3.855469,-5.14648 1.515625,-6.25 -1.066406,-6.33985 -3.47461,-5.41015 -5.324219,-3.60352 -6.314453,-1.2168 z m 227.013667,28.6211 -5.85156,2.66601 -4.33008,4.75391 -2.10742,6.07422 0.45313,6.41406 2.04297,4.48437 1.3457,2.04493 1.73437,2.77929 1.61915,2.74024 1.56835,2.80468 1.55274,2.94336 1.41797,2.85157 1.36328,2.91797 1.33398,3.05078 1.2168,2.97851 0.0352,0.0918 0.008,0.0117 0.043,0.10547 0.0195,-0.008 3.37695,5.31836 5.30469,3.63477 6.30664,1.25195 6.28906,-1.33203 5.25781,-3.70117 3.37696,-5.47266 0.95117,-6.35742 -1.02148,-4.82226 -0.0937,-0.24805 -0.14454,-0.36719 -1.38476,-3.38672 -0.15234,-0.36133 -1.4629,-3.3457 -0.1621,-0.35547 -1.54102,-3.30273 -0.16992,-0.35156 -1.61914,-3.25782 -0.17774,-0.34765 -1.69531,-3.21289 -0.18555,-0.33985 -1.76953,-3.16601 -0.19336,-0.33594 -1.84375,-3.11914 -0.19922,-0.33008 -1.91601,-3.06836 -0.20899,-0.32422 -1.45117,-2.20508 -4.54101,-4.55078 -5.9668,-2.39453 z m 483.20704,14.49218 -4.76758,4.3125 -2.68555,5.84375 -0.16797,6.42774 1.60156,4.66015 0.95899,1.81641 1.47851,2.97656 1.36133,2.91797 1.30664,2.98633 1.22071,2.99219 1.16211,3.05078 1.09961,3.12305 1.00195,3.08203 0.95117,3.19531 0.0586,0.21484 2.89258,5.74219 4.91797,4.14063 6.15234,1.86914 6.39063,-0.70313 5.59961,-3.16406 3.90039,-5.11133 1.57422,-6.23437 -0.53906,-4.89844 -0.10743,-0.39258 -0.10742,-0.38281 -1.05468,-3.54297 -0.11719,-0.37891 -1.13867,-3.50586 -0.12696,-0.375 -1.2207,-3.46679 -0.13672,-0.3711 -1.30273,-3.42773 -0.14453,-0.36719 -1.38282,-3.38672 -0.15429,-0.36133 -1.46289,-3.3457 -0.16016,-0.35547 -1.54297,-3.30273 -0.16992,-0.35156 -1.61914,-3.25782 -0.17578,-0.3457 -1.06055,-2.00977 -4.08203,-4.96875 -5.70899,-2.95898 -6.41211,-0.47461 z m -275.75391,24.79102 -4.72461,4.36133 -2.22656,4.39648 -0.32227,0.99414 -0.11719,0.37891 -1.05468,3.54297 -0.10938,0.38281 -0.96679,3.57813 -0.0996,0.38671 -0.88282,3.61329 -0.0898,0.39062 -0.79297,3.64648 -0.082,0.39258 -0.70508,3.67969 -0.0703,0.39648 -0.61523,3.71094 -0.0605,0.39844 -0.52344,3.74023 -0.0508,0.40039 -0.42969,3.76954 -0.041,0.40234 -0.0899,1.01367 0.72852,6.38867 3.18554,5.58399 5.12696,3.88086 6.24219,1.54882 6.3457,-1.0332 5.42578,-3.44922 3.63281,-5.30468 1.18555,-4.78516 0.0723,-0.80664 0.38671,-3.38281 0.46485,-3.32032 0.55078,-3.32031 0.6289,-3.28516 0.71094,-3.26757 0.78711,-3.22461 0.8711,-3.21485 0.94921,-3.1914 0.24414,-0.75391 0.7168,-6.38867 -1.85742,-6.15625 -4.13086,-4.92774 -5.73633,-2.90429 -6.41601,-0.41016 z m -479.45703,12.60547 -5.81641,2.73828 -4.26758,4.80859 -1.77734,4.59766 -0.2207,1.00977 -0.0801,0.39257 -0.70508,3.67969 -0.0703,0.39648 -0.61524,3.71094 -0.0605,0.39649 -0.52344,3.74218 -0.0508,0.40039 -0.43164,3.76954 -0.041,0.40234 -0.33594,3.79688 -0.0312,0.40429 -0.24219,3.82422 -0.0215,0.4043 -0.14648,3.84961 -0.01,0.40429 -0.0488,3.87305 v 0.39844 l 0.006,0.51562 1.36914,6.28125 3.73047,5.23633 5.49219,3.3457 6.36328,0.91211 6.21094,-1.66601 5.052734,-3.97656 3.080078,-5.64454 0.699219,-4.8789 -0.0039,-0.30664 0.04492,-3.46485 0.126953,-3.42773 0.220703,-3.47852 0.300781,-3.375 0.386719,-3.36914 0.464844,-3.32812 0.548828,-3.32031 0.626953,-3.27344 0.181641,-0.83008 0.07617,-6.42969 -2.458985,-5.93945 -4.599609,-4.49219 -5.998047,-2.32031 z m 294.20898,39.99219 -5.29882,3.64257 -3.43555,5.43555 -1.01172,4.82422 -0.0508,0.99609 -0.19336,2.66016 -0.24609,2.67383 -0.3086,2.74219 -0.35351,2.64843 -0.42383,2.75391 -0.44141,2.52734 -0.5293,2.72266 -0.5664,2.62109 -0.61133,2.58203 -0.69141,2.67578 -0.12695,0.45118 -0.44922,6.41406 2.10938,6.07422 4.33203,4.75195 5.85156,2.66406 6.42773,0.14453 5.9668,-2.39843 4.54102,-4.55274 2.04101,-4.48633 0.18164,-0.65039 0.084,-0.30859 0.75,-2.91016 0.0762,-0.30859 0.69336,-2.92578 0.0703,-0.3125 0.63477,-2.93945 0.0644,-0.3125 0.57617,-2.95508 0.0586,-0.31446 0.51757,-2.96679 0.0527,-0.31641 0.45703,-2.97851 0.0469,-0.31836 0.39844,-2.99024 0.0391,-0.31836 0.33985,-3.00195 0.0332,-0.32031 0.27735,-3.00977 0.0273,-0.32031 0.21875,-3.01953 0.0195,-0.32227 0.0625,-1.17773 -0.96289,-6.35742 -3.38672,-5.46485 -5.26367,-3.6914 -6.29297,-1.32032 z m 480.1211,14.14257 -5.63672,3.0918 -3.96485,5.0625 -1.49218,4.69727 -0.19727,1.27929 -0.44336,2.54102 -0.5293,2.72266 -0.5664,2.61523 -0.61133,2.58203 -0.66992,2.58984 -0.7207,2.58008 -0.79688,2.64844 -0.82227,2.54297 -0.875,2.5293 -0.91992,2.5039 -0.13672,0.34571 -1.08789,6.33789 1.49219,6.2539 3.83594,5.16016 5.55664,3.23437 6.38086,0.78711 6.17578,-1.79101 4.97266,-4.07618 2.48046,-4.25976 0.1875,-0.48242 0.11329,-0.29883 1.03711,-2.82031 0.10742,-0.29883 0.98242,-2.83985 0.0996,-0.30273 0.92578,-2.85937 0.0937,-0.30469 0.86719,-2.87695 0.0898,-0.30665 0.81055,-2.89257 0.082,-0.3086 0.75195,-2.91211 0.0762,-0.30859 0.69532,-2.92578 0.0703,-0.3125 0.63476,-2.94141 0.0645,-0.3125 0.57812,-2.95508 0.0586,-0.31445 0.51758,-2.96875 0.0508,-0.31641 0.21679,-1.39648 -0.31836,-6.42188 -2.82226,-5.77929 -4.86719,-4.20117 -6.12695,-1.94532 z m -291.38672,26.45899 -5.36719,3.53906 -3.54297,5.36523 -1.14258,6.32813 0.875,4.84961 0.52735,1.53125 0.10742,0.30078 1.03906,2.81836 0.11328,0.29883 1.09375,2.79883 0.11914,0.29492 1.15039,2.77734 0.12305,0.29297 1.20703,2.75391 0.13086,0.29101 1.25977,2.73242 0.13672,0.28711 1.3164,2.70899 0.14258,0.28515 1.36914,2.68165 0.14844,0.2832 1.42383,2.65625 0.15429,0.28125 1.47852,2.6289 0.16016,0.27735 1.53125,2.60351 0.16601,0.27344 0.14453,0.23242 4.40235,4.68555 5.89257,2.57422 6.42969,0.0449 5.92969,-2.48828 4.46875,-4.62305 2.28906,-6.00781 -0.25976,-6.42383 -1.89063,-4.50195 0.004,-0.002 -0.0156,-0.0254 -0.006,-0.0156 -0.0586,-0.0957 -1.35938,-2.30664 -1.35546,-2.41211 -1.24805,-2.33008 -1.2207,-2.39063 -1.19141,-2.44726 -1.12109,-2.42969 -1.07422,-2.45312 -1.03907,-2.50977 -0.96093,-2.46094 -0.92969,-2.51758 -0.48633,-1.4082 -3.2793,-5.53125 -5.1914,-3.79297 -6.26563,-1.44336 z m -476.0586,14.54687 -4.98632,4.06055 -2.98243,5.69531 -0.5,6.41016 1.35743,4.73828 0.74414,1.60938 0.13867,0.28906 1.31836,2.70508 0.14453,0.2871 1.37305,2.67969 0.15039,0.28516 1.42773,2.6543 0.15625,0.28125 1.48242,2.62695 0.16211,0.27734 1.53711,2.59961 0.16602,0.27539 1.59179,2.57031 0.17188,0.27344 1.644531,2.54102 0.177734,0.26953 1.697266,2.50977 0.183593,0.26562 1.751954,2.48047 0.189453,0.26172 1.802734,2.44726 4.775391,4.30469 6.085937,2.07813 6.412109,-0.48829 5.701172,-2.9707 4.072266,-4.97656 1.785156,-6.17578 -0.792968,-6.38086 -2.277344,-4.3711 -1.689453,-2.29492 -1.580079,-2.23828 -1.488281,-2.19726 -1.527343,-2.35938 -1.365235,-2.20508 -1.425781,-2.41406 -1.314453,-2.32812 -1.289063,-2.39454 -1.21875,-2.38086 -1.169922,-2.40039 -0.667968,-1.44336 -3.820313,-5.17187 -5.546875,-3.25195 -6.378906,-0.80469 z m 255.28321,32.27735 -5.73828,2.89843 -3.34571,3.61914 -0.91406,1.36133 -0.17578,0.26758 -1.63477,2.54297 -0.17187,0.26953 -1.58008,2.57227 -0.16602,0.27343 -1.52734,2.59961 -0.16016,0.27735 -1.4746,2.62695 -0.1543,0.2793 -1.42188,2.65429 -0.14648,0.28321 -1.36719,2.67968 -0.14258,0.28516 -1.3125,2.70703 -0.13671,0.28711 -1.25782,2.73047 -0.13086,0.28906 -1.20312,2.75391 -0.125,0.29297 -1.14844,2.77539 -0.11719,0.29492 -0.0918,0.23047 -1.08594,6.33789 1.49414,6.25391 3.83594,5.16015 5.55664,3.23242 6.38281,0.78516 6.17578,-1.79102 4.9707,-4.07812 2.44336,-4.19922 0.008,0.004 0.0254,-0.0606 0.002,-0.004 0.0117,-0.0312 1.02148,-2.47265 1.10743,-2.53321 1.0996,-2.38867 1.20704,-2.48633 1.19726,-2.34765 1.30664,-2.43945 1.26953,-2.26172 1.42774,-2.42578 1.36133,-2.2129 1.47851,-2.30078 0.82617,-1.23046 2.43946,-5.94727 -0.0977,-6.42969 -2.62305,-5.87109 -4.7207,-4.36524 -6.05859,-2.15234 z m 470.89843,13.08789 -5.42382,3.45117 -2.97266,3.93359 -0.92383,1.72071 -0.14843,0.2832 -1.3711,2.68164 -0.14258,0.28711 -1.3164,2.70703 -0.13672,0.28711 -1.26172,2.73242 -0.13086,0.29102 -1.20508,2.7539 -0.125,0.29297 -1.15039,2.77735 -0.11914,0.29492 -1.0957,2.79883 -0.11328,0.29882 -1.03711,2.81836 -0.10742,0.30079 -0.98243,2.83789 -0.10156,0.30273 -0.92578,2.85938 -0.0937,0.30273 -0.86328,2.85937 -0.58399,6.40235 1.98438,6.11719 4.23242,4.83984 5.79688,2.7832 6.42382,0.27735 6.01368,-2.27344 4.63281,-4.45703 2.13476,-4.44336 0.82227,-2.7207 0.82422,-2.54688 0.88672,-2.5625 0.91211,-2.47852 0.98828,-2.52343 1.02734,-2.47657 1.07227,-2.45312 1.12304,-2.43164 1.18946,-2.44531 1.17968,-2.3086 0.88868,-1.65429 1.83984,-6.16211 -0.73437,-6.38672 -3.18946,-5.58399 -5.1289,-3.87695 -6.24219,-1.54492 z m 267.82813,11.48437 -5.06641,3.95899 -3.09961,5.63476 -0.63085,6.39844 1.25976,4.76367 0.67774,1.54102 1.05664,2.54687 0.95312,2.4336 0.95313,2.59179 0.875,2.52735 0.8164,2.51562 0.77344,2.5586 0.7207,2.57226 0.67578,2.61328 0.63282,2.66211 0.5957,2.75977 0.0488,-0.01 2.375,5.6875 4.61133,4.48047 6.0039,2.30078 6.42578,-0.24609 5.8086,-2.75586 4.25586,-4.82031 2.01367,-6.10743 -0.18946,-4.92382 -0.0117,-0.0606 -0.0645,-0.3125 -0.63672,-2.94141 -0.0703,-0.3125 -0.69531,-2.92578 -0.0762,-0.31055 -0.75391,-2.91015 -0.084,-0.30859 -0.81055,-2.89258 -0.0879,-0.3086 -0.86914,-2.875 -0.0957,-0.30664 -0.92579,-2.85742 -0.10156,-0.30273 -0.98242,-2.83985 -0.10742,-0.30078 -1.03906,-2.81836 -0.11329,-0.30078 -1.0957,-2.79687 -0.12109,-0.29688 -1.15039,-2.77734 -0.12696,-0.29297 -0.75781,-1.73047 -3.71289,-5.25 -5.48047,-3.36328 -6.36133,-0.93555 z m -473.23242,13.13672 -5.43945,3.42774 -3.6504,5.29492 -1.27148,6.30273 0.77539,4.86719 0.60156,1.85742 0.80469,2.67188 0.69531,2.48632 0.69336,2.6836 0.61133,2.58203 0.56641,2.61914 0.51757,2.64648 0.47071,2.70508 0.40429,2.63282 0.35547,2.66406 0.29102,2.56054 1.99023,6.11329 4.23828,4.83593 5.79883,2.77735 6.42383,0.27148 6.01172,-2.28125 4.62891,-4.46289 2.49804,-5.92578 0.20703,-4.92383 -0.30859,-2.73242 -0.041,-0.32031 -0.39844,-2.99024 -0.0449,-0.31836 -0.45899,-2.97851 -0.0527,-0.31641 -0.51758,-2.96875 -0.0586,-0.31445 -0.57617,-2.95508 -0.0645,-0.3125 -0.63672,-2.94141 -0.0703,-0.31054 -0.69336,-2.92578 -0.0762,-0.31055 -0.75196,-2.91016 -0.084,-0.30859 -0.80859,-2.89453 -0.0899,-0.30664 -0.86523,-2.87696 -0.0957,-0.30468 -0.66601,-2.05664 -3.16602,-5.59766 -5.11328,-3.89649 -6.23437,-1.57031 z m -294.39258,54.46875 -4.94727,4.10547 -2.93359,5.72266 -0.57227,4.89453 0.0273,0.74218 0.0215,0.4043 0.24219,3.82422 0.0293,0.4043 0.33789,3.79687 0.041,0.40235 0.43164,3.76953 0.0508,0.40039 0.52343,3.74023 0.0606,0.39844 0.61523,3.71094 0.0703,0.39648 0.70508,3.67969 0.0801,0.39258 0.79297,3.64648 0.0898,0.39063 0.88281,3.61328 0.0996,0.38672 0.28125,1.04297 2.89258,5.74218 4.91992,4.13868 6.15234,1.87109 6.39063,-0.70508 5.59765,-3.16211 3.90235,-5.11133 1.57421,-6.23437 -0.54101,-4.89844 -0.22656,-0.83984 -0.78907,-3.23242 -0.71093,-3.26758 -0.62891,-3.28516 -0.53906,-3.24805 -0.46875,-3.33593 -0.39258,-3.42969 -0.30078,-3.38086 -0.21875,-3.46484 -0.0195,-0.51368 -1.53125,-6.24414 -3.86524,-5.13867 -5.57422,-3.20312 -6.38671,-0.74805 z m 480.01367,15.48047 -4.50781,4.58398 -2.3418,5.98829 -0.0762,4.92968 0.16797,1.20118 0.0606,0.39843 0.61523,3.71094 0.0703,0.39648 0.70508,3.67969 0.0801,0.39258 0.79492,3.64648 0.0898,0.39063 0.88086,3.61328 0.0996,0.38672 0.96875,3.57812 0.10938,0.38282 1.05273,3.54297 0.11914,0.3789 1.13672,3.50586 0.12696,0.375 1.22265,3.4668 0.13477,0.37109 0.37695,0.98828 3.44531,5.42969 5.30469,3.63281 6.30664,1.25196 6.29102,-1.33203 5.25781,-3.70118 3.37695,-5.4707 0.94922,-6.35938 -1.02148,-4.82226 -0.3086,-0.8125 -1.08593,-3.08398 -1.02344,-3.1543 -0.94727,-3.18555 -0.84961,-3.14258 -0.78711,-3.22656 -0.71289,-3.26953 -0.62695,-3.28125 -0.55078,-3.32227 -0.13867,-0.99218 -2.15235,-6.0586 -4.36328,-4.72265 -5.87109,-2.62305 -6.42969,-0.0996 z m 299.98828,9.62891 -5.8164,2.74023 -4.26953,4.80859 -1.76172,4.55469 h -0.002 l -0.004,0.0156 -0.01,0.0254 -0.0332,0.14843 -0.78906,3.23633 -0.86914,3.21094 -0.92579,3.11328 -1.02539,3.15821 -1.10742,3.14453 -1.15039,3.02148 -1.25,3.05664 -1.30664,2.98633 -0.81836,1.75195 -1.49414,6.25391 1.08789,6.33594 3.4961,5.39648 5.33593,3.58594 6.31836,1.19531 6.27735,-1.39062 5.2246,-3.74805 2.74805,-4.0918 0.92188,-1.97461 0.16211,-0.35547 1.46289,-3.3457 0.15234,-0.36133 1.38477,-3.38672 0.14453,-0.36718 1.30273,-3.42774 0.13672,-0.37109 1.2207,-3.4668 0.12696,-0.375 1.13867,-3.50586 0.11719,-0.3789 1.05468,-3.54297 0.10743,-0.38282 0.96875,-3.57812 0.0996,-0.38672 0.88086,-3.61328 0.0898,-0.39063 0.0762,-0.34765 0.0781,-6.42774 -2.46093,-5.9414 -4.59961,-4.49219 -5.9961,-2.32031 z m -488.48828,16.06054 -4.72656,4.36133 -2.22461,4.39844 -0.0645,0.19922 -1.08985,3.0957 -1.17578,3.08984 -1.2207,2.98829 -1.30859,2.99023 -1.36133,2.91797 -1.47852,2.97656 -1.50195,2.8457 -1.58399,2.83594 -1.11132,1.87696 -2.0918,6.07812 0.46875,6.41406 2.95508,5.70899 4.96484,4.08593 6.17188,1.80274 6.38281,-0.77539 5.5625,-3.22461 3.13281,-3.80469 1.21094,-2.04883 0.19336,-0.33593 1.76953,-3.16602 0.18555,-0.3418 1.69531,-3.21289 0.17773,-0.3457 1.61914,-3.25781 0.16797,-0.35157 1.54297,-3.30273 0.16016,-0.35547 1.46484,-3.3457 0.15234,-0.36133 1.38477,-3.38867 0.14258,-0.36524 1.30469,-3.42773 0.13476,-0.37109 1.2207,-3.4668 0.12696,-0.375 0.13086,-0.40039 0.71679,-6.39063 -1.85742,-6.15429 -4.13086,-4.92774 -5.73633,-2.90429 -6.41796,-0.41016 z m -255.23633,45.86133 -5.56836,3.21289 -3.85351,5.14649 -1.51758,6.25 1.06445,6.33984 2.46289,4.26953 0.3125,0.38672 0.24414,0.29492 2.32618,2.75196 0.25,0.28906 2.39062,2.69336 0.25781,0.2832 2.45313,2.63672 0.26367,0.27539 2.51563,2.57617 0.26953,0.26953 2.57617,2.51563 0.27539,0.26367 2.63672,2.45312 0.2832,0.25782 2.69336,2.39062 0.28906,0.25 2.75196,2.32617 0.29297,0.24414 2.09375,1.68555 5.71679,2.94336 6.41211,0.45703 6.07617,-2.10547 4.75586,-4.32617 2.66992,-5.84961 0.1504,-6.42773 -2.39258,-5.96875 -3.31641,-3.64649 -1.96484,-1.58203 -2.42969,-2.05469 -2.42188,-2.14843 -2.37695,-2.21289 -2.27929,-2.22657 -2.22461,-2.27734 -2.25,-2.41797 -2.08008,-2.34375 -2.11133,-2.49609 -0.18555,-0.23242 -4.95703,-4.09571 -6.16992,-1.8125 z m 488.46875,11.45703 -5.23828,3.73047 -3.3457,5.49024 -0.91602,6.36523 1.66602,6.21094 2.85937,4.01367 0.11133,0.11523 0.26953,0.26954 2.57618,2.51562 0.27734,0.26367 2.63477,2.45313 0.2832,0.25781 2.69336,2.39062 0.28906,0.25 2.75195,2.32618 0.29493,0.24414 2.80664,2.25976 0.30078,0.23633 2.86328,2.19531 0.30664,0.22852 2.91601,2.12695 0.3125,0.22266 2.96875,2.05859 0.31836,0.21485 2.50586,1.64843 5.97071,2.38477 6.42773,-0.16016 5.8457,-2.67578 4.32032,-4.76367 2.09765,-6.07813 -0.46679,-6.4121 -2.95118,-5.7129 -3.65039,-3.31054 -2.39257,-1.57617 -2.61719,-1.81446 -2.58594,-1.88672 -2.56445,-1.96484 -2.5293,-2.03906 -2.43555,-2.0586 -2.38281,-2.11328 -2.375,-2.20898 -2.29687,-2.24219 -0.15625,-0.1543 -0.0293,0.0293 -5.13867,-3.47852 -6.31446,-1.21679 z m 203.94141,8.0586 -4.21094,2.56445 -1.7207,1.45703 -2.5293,2.03711 -2.52734,1.9375 -2.62305,1.91406 -2.61719,1.81446 -2.77148,1.82617 -2.66406,1.66211 -2.80078,1.6582 -2.86719,1.60352 -0.3711,0.19531 -4.96679,4.08203 -2.96094,5.70703 -0.47266,6.41211 2.08789,6.08203 4.31446,4.76758 5.8418,2.68359 6.42773,0.16797 4.66211,-1.59961 0.54297,-0.28711 0.34179,-0.18554 3.16602,-1.77149 0.33594,-0.1914 3.11914,-1.84375 0.32812,-0.20118 3.07032,-1.91601 0.32421,-0.20703 3.01954,-1.98828 0.31835,-0.21485 2.96876,-2.05859 0.3125,-0.22266 2.91601,-2.12695 0.30664,-0.22852 2.86328,-2.19531 0.30078,-0.23633 2.80664,-2.25976 0.29493,-0.24414 1.88476,-1.59375 3.97656,-5.05274 1.66407,-6.21094 -0.91407,-6.36523 -3.3457,-5.49023 -5.23633,-3.73047 -6.2832,-1.36719 z m -490.23047,8.51172 -4.43555,2.15039 -1.5664,1.08593 -2.76953,1.82422 -2.69922,1.6836 -2.80274,1.65625 -2.80468,1.57031 -2.875,1.51758 -2.91602,1.44922 -2.94922,1.37695 -2.95703,1.29492 -0.5957,0.24414 -5.3418,3.57813 -3.50195,5.39257 -1.09766,6.33594 1.48633,6.25391 3.83008,5.16601 5.55273,3.24219 6.38086,0.79297 4.79492,-1.13867 0.73242,-0.30078 0.36133,-0.15235 3.34571,-1.46289 0.35742,-0.16211 3.30078,-1.54101 0.35156,-0.16992 3.25977,-1.61915 0.3457,-0.17773 3.21289,-1.69531 0.33984,-0.1836 3.16797,-1.77148 0.33399,-0.19141 3.11914,-1.84375 0.33008,-0.20117 3.07031,-1.91601 0.32422,-0.20899 3.01953,-1.98633 0.31836,-0.21484 1.77148,-1.22852 4.44141,-4.65039 2.25,-6.02343 -0.30078,-6.42188 -2.80469,-5.78516 -4.85742,-4.21484 -6.12305,-1.96094 z m -126.06836,24.22656 -4.60547,4.48633 -2.46875,5.93554 0.0684,6.42969 2.59375,5.88477 4.70117,4.38671 4.55079,1.89258 2.53515,0.61719 0.39063,0.0898 3.64648,0.79493 0.39258,0.0801 3.67969,0.70508 0.39648,0.0703 3.71094,0.61524 0.39648,0.0606 3.74219,0.52343 0.40039,0.0508 3.76953,0.43164 0.40235,0.041 3.79687,0.33594 0.4043,0.0312 3.82422,0.24219 0.40429,0.0215 2.92969,0.11133 6.34375,-1.05274 5.41602,-3.46289 3.61523,-5.31836 1.23047,-6.31054 -1.35156,-6.28516 -3.71875,-5.24609 -5.48242,-3.35743 -4.83789,-0.94335 -2.68946,-0.10157 -3.48242,-0.2207 -3.375,-0.30078 -3.36914,-0.38672 -3.32813,-0.46484 -3.32031,-0.54883 -3.27734,-0.62891 -3.27539,-0.71289 -2.33399,-0.56836 -6.42578,-0.23828 z m 498.89649,0.86523 -5.73829,2.90039 -4.13476,4.92383 -1.86133,6.1543 0.71289,6.39062 3.16992,5.59375 5.11524,3.89453 4.71875,1.42774 2.85547,0.39844 0.40039,0.0508 3.77148,0.43164 0.40039,0.041 3.79883,0.33789 0.40234,0.0293 3.82422,0.24219 0.4043,0.0215 3.84961,0.14649 0.40625,0.01 3.87305,0.0488 h 0.40429 l 3.875,-0.0488 0.4043,-0.01 3.84961,-0.14649 0.4043,-0.0215 2.21875,-0.14063 6.20507,-1.6875 5.03907,-3.99414 3.05859,-5.65429 0.58789,-6.40235 -1.98242,-6.11719 -4.22852,-4.84375 -5.79492,-2.78711 -4.9082,-0.44921 -2.05469,0.13086 -3.34961,0.12695 -3.52539,0.0449 -3.52734,-0.0449 -3.34961,-0.12695 -3.47656,-0.22071 -3.38086,-0.30078 -3.36133,-0.38476 -2.66016,-0.3711 z"
       id="path919"
       inkscape:connector-curvature="0" />
    <path
       sodipodi:nodetypes="ccscccscccscccscc"
       inkscape:connector-curvature="0"
       d="m -80.00976,652.32428 c -19.5137,-25.93032 -30.09699,-57.48688 -30.16336,-89.93928 0,-82.889 67.194884,-150.08416 150.083968,-150.08416 82.889092,0 150.083972,67.19516 150.083972,150.08416 -0.0528,32.45708 -10.62601,64.02232 -30.00214,89.97408 -19.38178,25.942 -29.96509,57.4984 -30.03145,89.9508 0,82.8892 67.19488,150.08392 150.08397,150.08392 82.88909,0 150.08396,-67.19472 150.08396,-150.08392 -0.0528,-32.4568 -10.626,-64.022 -30.0608,-90.018 C 380.628,626.3062 370.0447,594.74964 369.97833,562.2972 c 0,-82.88896 67.19487,-150.08396 150.08395,-150.08396 82.88912,0 150.084,67.195 150.084,150.08396 -0.0528,32.45712 -10.62604,64.02236 -30.0754,90.00668 -19.45512,25.974 -30.0384,57.5304 -30.10476,89.9828 0,82.8888 67.19484,150.08392 150.08396,150.08392 82.88908,0 150.08396,-67.19512 150.08396,-150.08392 -0.0528,-32.4572 -10.626,-64.0224 -30.13404,-89.9624"
       style="color:#000000;display:inline;overflow:visible;visibility:visible;opacity:1;fill:none;fill-opacity:1;fill-rule:evenodd;stroke:#bb0000;stroke-width:32;stroke-linecap:round;stroke-linejoin:round;stroke-miterlimit:4;stroke-dasharray:32, 64;stroke-dashoffset:0;stroke-opacity:1;marker:none;enable-background:accumulate"
       id="path4155" />
  </g>
</svg>
